<svg width="150" height="61" viewBox="0 0 150 61" fill="none" xmlns="http://www.w3.org/2000/svg">
<g clip-path="url(#clip0_1_1107)">
<path d="M51.2751 37.6617C52.3465 37.8867 53.418 37.9617 54.4894 37.9617C61.071 37.9617 66.8874 34.5117 66.8874 26.7867C66.8874 18.9867 62.6016 15.0867 55.1782 15.0867C53.8771 15.0867 52.4996 15.2367 51.1986 15.6117V37.6617H51.2751ZM46.8363 17.9367C46.8363 15.9117 47.1425 12.6117 44.9231 11.9367V11.7867H55.7139C65.7394 11.8617 71.9384 17.3367 71.9384 26.2617C71.9384 35.0367 65.2802 41.1867 55.4078 41.1867H44.8465V41.0367C47.0659 39.5367 46.7598 37.3617 46.7598 34.7367V17.9367H46.8363ZM93.8261 38.1867C91.9129 40.7367 88.2394 41.8617 85.1782 41.8617C82.27 41.8617 79.2088 40.9617 77.219 38.7117C74.8465 36.1617 74.9996 33.1617 74.9996 29.9367V18.0867C74.9996 16.0617 75.3057 12.8367 73.0863 12.0117V11.8617H81.4282V12.0117C79.2088 12.8367 79.5149 16.1367 79.5149 18.0867V30.0117C79.5149 35.9367 81.9639 38.7117 86.5557 38.7117C89.0047 38.7117 91.5302 37.6617 92.9843 35.5617C93.9792 34.2117 93.9027 33.0867 93.9027 31.5117V18.0867C93.9027 16.0617 94.1323 12.8367 91.9894 12.0117V11.8617H100.255L100.331 12.0117C98.1119 12.8367 98.3414 16.1367 98.3414 18.1617V34.9617C98.3414 36.9867 98.1119 40.2117 100.331 41.0367V41.1867H93.8261V38.1867ZM115.178 18.1617C116.632 16.0617 119.311 13.2867 116.326 11.9367V11.7867H124.285V11.8617L114.183 24.9867L123.061 36.8367C124.438 38.6367 126.122 39.9117 128.341 41.0367V41.1867H124.209C122.066 41.1867 120 40.3617 119.234 39.2367L109.438 25.9617L115.178 18.1617ZM104.387 18.0867C104.387 16.0617 104.617 12.8367 102.398 12.0117V11.8617H110.892V12.0117C108.673 12.8367 108.903 16.1367 108.903 18.0867V34.8867C108.903 36.9117 108.673 40.2117 110.892 41.0367V41.1867H102.398V41.0367C104.617 40.2117 104.387 36.9117 104.387 34.8867V18.0867ZM135.382 37.4367L140.969 37.9617C143.877 38.2617 146.938 37.2867 149.158 35.3367H149.311L147.321 41.1867H128.954V41.0367C131.173 40.2117 130.943 36.9117 130.943 34.9617V18.1617C130.943 16.1367 131.173 12.8367 128.954 12.0117V11.8617H143.035C143.801 11.8617 144.566 11.9367 145.102 11.6367H145.255V16.8117H145.102C143.724 15.2367 141.964 15.0117 139.898 15.0117C138.367 15.0117 136.836 15.0867 135.382 15.3117V23.5617H140.663C141.352 23.5617 142.04 23.5617 142.576 23.2617H142.729V27.9867H142.576C141.887 26.7117 140.051 26.7117 138.673 26.7117H135.382V37.4367ZM15.0761 46.8117C13.7751 45.9867 12.321 45.4617 10.7904 45.4617C7.57613 45.4617 5.35674 47.8617 5.35674 51.2367C5.35674 54.6867 7.65266 57.7617 11.2496 57.7617C13.0098 57.7617 14.6935 57.1617 16.2241 56.2617H16.3006L15.1527 58.9617C14.0812 59.4867 12.8567 59.6367 11.6322 59.6367C6.12204 59.6367 2.7547 56.5617 2.7547 51.5367C2.67817 46.7367 6.04551 43.5867 10.8669 43.5867C12.321 43.5867 13.6986 43.8117 15.0761 44.1867V46.8117ZM21.9639 43.9617C25.1016 43.9617 26.7853 45.6117 26.7853 47.7117C26.7853 49.8117 25.0251 51.3867 23.1118 51.8367L26.4792 56.1117C27.4741 57.3117 28.9282 58.5867 30.2292 59.4117H28.0863C26.8618 59.4117 26.0965 59.1117 25.4078 58.2117L22.5761 54.6867L20.4333 51.3867C22.27 51.0867 24.4129 50.2617 24.4129 48.0117C24.4129 46.2867 22.9588 45.3117 21.4282 45.3867C20.8925 45.3867 20.3567 45.4617 19.821 45.6117V56.1117C19.821 57.1617 19.668 58.8867 20.8925 59.3367H16.4537V59.2617C17.6016 58.8117 17.4486 57.0867 17.4486 56.0367V47.2617C17.4486 46.2117 17.6016 44.4867 16.4537 44.0367V43.9617H21.9639Z" fill="#214099"/>
<path d="M33.2143 57.3865L36.199 57.6865C37.7296 57.8365 39.3367 57.3115 40.4847 56.3365H40.5612L39.4898 59.3365H29.8469V59.2615C30.9949 58.8115 30.9184 57.0865 30.9184 56.0365V47.2615C30.9184 46.2115 31.0714 44.4865 29.8469 44.0365V43.9615H37.2704C37.653 43.9615 38.0357 44.0365 38.3418 43.8115H38.4184V46.5865H38.3418C37.653 45.7615 36.6581 45.6115 35.5867 45.6115C34.7449 45.6115 33.9796 45.6115 33.2143 45.7615V50.1115H35.9694C36.352 50.1115 36.7347 50.1115 36.9643 49.9615H37.0408V52.4365H36.9643C36.6581 51.8365 35.6633 51.8365 34.9745 51.8365H33.2908V57.3865H33.2143ZM44.2347 57.5365C44.7704 57.6865 45.3826 57.6865 45.9184 57.6865C49.3622 57.6865 52.4235 55.8865 52.4235 51.8365C52.4235 47.7115 50.1275 45.6865 46.301 45.6865C45.6122 45.6865 44.9235 45.7615 44.2347 45.9115V57.5365ZM41.8622 47.1115C41.8622 46.0615 42.0153 44.3365 40.8673 43.9615V43.8865H46.5306C51.8112 43.8865 55.102 46.8115 55.102 51.4615C55.102 56.1115 51.5816 59.3365 46.3775 59.3365H40.7908V59.2615C41.9388 58.4365 41.7857 57.3115 41.7857 55.9615V47.1115H41.8622ZM57.0153 47.2615C57.0153 46.2115 57.1683 44.4865 56.0204 44.0365V43.9615H60.4592V44.0365C59.3112 44.4865 59.4643 46.2115 59.4643 47.2615V56.1115C59.4643 57.1615 59.3112 58.8865 60.4592 59.3365H56.0204V59.2615C57.1683 58.8115 57.0153 57.0865 57.0153 56.0365V47.2615Z" fill="#214099"/>
<path d="M67.4236 56.3366C67.4236 57.6866 67.4236 58.5866 68.6481 59.3366H64.0563V59.2616C65.2042 58.8116 65.0512 57.0866 65.0512 56.0366V45.6116H62.9849C61.99 45.6116 60.9185 45.8366 60.2298 46.5866H60.1532L60.9951 43.8116H61.0716C61.3777 43.9616 61.6838 43.9616 61.99 43.9616H71.1736C71.5563 43.9616 71.9389 43.9616 72.2451 43.8116H72.3216L71.5563 46.5866H71.4798C71.1736 45.7616 70.2553 45.6116 69.49 45.6116H67.4236V56.3366ZM89.3114 57.8366C88.3165 59.1866 86.4032 59.7866 84.7961 59.7866C83.2655 59.7866 81.6583 59.2616 80.5869 58.1366C79.3624 56.7866 79.4389 55.2116 79.4389 53.4866V47.2616C79.4389 46.2116 79.592 44.4866 78.444 44.0366V43.9616H82.8828V44.0366C81.7349 44.4866 81.8879 46.2116 81.8879 47.2616V53.4866C81.8879 56.6366 83.1889 58.0616 85.5614 58.0616C86.8624 58.0616 88.1634 57.5366 88.9287 56.4116C89.4644 55.7366 89.3879 55.1366 89.3879 54.3116V47.2616C89.3879 46.2116 89.541 44.4866 88.393 44.0366V43.9616H92.8318V44.0366C91.6838 44.4866 91.7604 46.2116 91.7604 47.2616V56.1116C91.7604 57.1616 91.6073 58.8866 92.8318 59.3366H89.3879V57.8366H89.3114ZM96.6583 56.3366C96.6583 57.6116 96.6583 58.5866 97.8828 59.3366H93.7502V59.2616C94.9747 58.5116 94.9747 57.6116 94.9747 56.2616V46.9616C94.9747 45.6116 94.9747 44.7116 93.7502 44.0366V43.9616H97.1175C97.194 44.2616 97.2706 44.3366 97.5002 44.5616L97.8063 45.0116L106.378 55.8116V46.9616C106.378 45.6116 106.378 44.7116 105.153 44.0366V43.9616H109.209V44.0366C107.985 44.7116 107.985 45.6866 107.985 46.9616V60.0866C106.301 59.4866 105.612 58.7366 104.618 57.3866L96.6583 47.1866V56.3366ZM111.123 47.2616C111.123 46.2116 111.276 44.4866 110.128 44.0366V43.9616H114.566V44.0366C113.419 44.4866 113.572 46.2116 113.572 47.2616V56.1116C113.572 57.1616 113.419 58.8866 114.566 59.3366H110.128V59.2616C111.276 58.8116 111.123 57.0866 111.123 56.0366V47.2616ZM117.857 51.3866C117.857 54.6866 120.153 58.0616 123.827 58.0616C127.347 58.0616 129.566 55.4366 129.566 51.9866C129.566 48.5366 127.424 45.2366 123.75 45.2366C120.153 45.2366 117.857 47.8616 117.857 51.3866ZM132.245 51.4616C132.245 56.2616 128.342 59.7116 123.674 59.7116C119.082 59.7116 115.179 56.4116 115.179 51.6116C115.179 47.1866 119.005 43.4366 123.903 43.5116C128.801 43.5116 132.245 47.2616 132.245 51.4616ZM135.765 56.3366C135.765 57.6116 135.765 58.5866 136.99 59.3366H132.857V59.2616C134.082 58.5116 134.082 57.6116 134.082 56.2616V46.9616C134.082 45.6116 134.082 44.7116 132.857 44.0366V43.9616H136.225C136.301 44.2616 136.378 44.3366 136.607 44.5616L136.913 45.0116L145.408 55.8116V46.9616C145.408 45.6116 145.408 44.7116 144.184 44.0366V43.9616H148.24V44.0366C147.015 44.7116 147.015 45.6866 147.015 46.9616V60.0866C145.332 59.4866 144.643 58.7366 143.648 57.3866L135.689 47.1866V56.3366H135.765ZM43.0104 22.2116V22.1366C41.5563 21.4616 40.4849 19.5866 39.643 17.8616C39.3369 17.1116 38.8777 16.4366 38.2655 15.9116L37.8828 15.5366C37.194 14.8616 36.3522 14.4116 35.3573 14.0366C33.9032 13.5116 32.3726 13.4366 30.9185 13.8116C31.3012 12.3866 31.2247 10.8866 30.6889 9.46162C30.3063 8.56162 29.8471 7.73662 29.1583 6.98662L28.7757 6.61162C28.1634 6.08662 27.5512 5.63662 26.7859 5.26162C25.0257 4.43662 23.0359 3.46162 22.4236 2.03662H22.3471H22.2706C21.5818 3.46162 19.6685 4.51162 17.9083 5.33662C17.143 5.71162 16.4542 6.08662 15.9185 6.68662L15.5359 7.06162C14.8471 7.73662 14.3879 8.56162 14.0053 9.53662C13.4696 11.0366 13.393 12.5366 13.8522 14.0366C12.3216 13.5866 10.7145 13.6616 9.26037 14.1866C8.342 14.5616 7.50016 15.0116 6.73486 15.6866L6.35221 16.0616C5.81649 16.6616 5.35731 17.2616 4.97465 18.0116C4.13282 19.7366 3.13792 21.6866 1.68384 22.2866V22.4366C3.13792 23.1116 4.20935 24.9866 5.05118 26.7116C5.43384 27.4616 5.81649 28.1366 6.42874 28.6616L5.96955 29.3366C6.65833 30.0116 7.50016 30.4616 8.49506 30.8366C9.94914 31.3616 11.4798 31.4366 12.9338 31.0616C12.5512 32.4866 12.6277 33.9866 13.1634 35.4116C13.5461 36.3116 14.0053 37.1366 14.694 37.8866L15.0767 38.2616C15.6889 38.7866 16.3012 39.2366 17.0665 39.6116C18.8267 40.4366 20.8165 41.4116 21.4287 42.8366H21.5053C22.194 41.4116 24.1073 40.3616 25.8675 39.5366C26.6328 39.2366 27.3216 38.7866 27.8573 38.1866L28.24 37.8116C28.9287 37.1366 29.3879 36.3116 29.7706 35.3366C30.3063 33.8366 30.3828 32.3366 29.9236 30.8366C31.4542 31.2866 33.0614 31.2116 34.5155 30.6866C35.4338 30.3116 36.2757 29.8616 37.041 29.1866L37.4236 28.8116C37.9593 28.2116 38.4185 27.6116 38.8012 26.8616C39.643 25.1366 40.6379 23.1866 42.092 22.5866V22.5116L43.0104 22.2116ZM36.0461 25.3616C35.2042 27.0866 33.9032 28.4366 32.2961 28.9616C31.2247 29.3366 30.0767 29.3366 29.0053 28.8866C28.9287 28.8866 28.8522 28.8116 28.7757 28.8116C28.7757 28.8866 28.8522 28.9616 28.8522 29.0366C29.3114 30.0866 29.3114 31.2116 28.9287 32.2616C28.393 33.7616 27.0155 35.1116 25.2553 35.9366C23.5716 36.6866 22.7298 37.8866 22.1175 39.0116C21.5053 37.8866 20.5869 36.6866 18.9798 35.9366C17.2196 35.1116 15.842 33.8366 15.3063 32.2616C15.2298 32.1116 15.2298 31.9616 15.1532 31.7366C15.0767 30.7616 15.3828 29.7866 15.7655 28.9616C15.842 28.8866 15.842 28.8116 15.842 28.7366C15.842 28.5116 15.6124 28.2866 15.3828 28.2866C15.3063 28.2866 15.2298 28.2866 15.1532 28.3616C14.3114 28.7366 13.24 29.0366 12.3216 28.9616C12.1685 28.8866 12.0155 28.8866 11.7859 28.8116C10.2553 28.2866 8.87772 26.9366 8.03588 25.2116C7.27057 23.5616 6.04608 22.7366 4.89812 22.1366C6.04608 21.5366 7.27057 20.6366 8.03588 19.0616C8.87772 17.3366 10.1787 15.9866 11.7859 15.4616C12.8573 15.0866 14.0053 15.0866 15.0767 15.5366C15.1532 15.5366 15.2298 15.6116 15.3063 15.6116C15.3063 15.5366 15.2298 15.4616 15.2298 15.3866C14.7706 14.3366 14.7706 13.2116 15.1532 12.1616C15.6889 10.6616 17.0665 9.31162 18.8267 8.48662C20.5104 7.73662 21.3522 6.53662 21.9644 5.41162C22.5767 6.53662 23.4951 7.73662 25.1787 8.48662C26.9389 9.31162 28.3165 10.5866 28.8522 12.1616C28.9287 12.3116 28.9287 12.4616 29.0053 12.6866C29.0818 13.6616 28.7757 14.6366 28.393 15.4616C28.3165 15.5366 28.3165 15.6116 28.3165 15.7616C28.3165 15.9866 28.5461 16.2116 28.7757 16.2116C28.8522 16.2116 29.0053 16.1366 29.0818 16.1366C29.9236 15.7616 30.9951 15.4616 31.9134 15.5366C32.0665 15.6116 32.2196 15.6116 32.4491 15.6866C33.9798 16.2116 35.3573 17.5616 36.1991 19.2866C36.9644 20.9366 38.1889 21.7616 39.3369 22.3616C38.0359 22.8116 36.8114 23.7116 36.0461 25.3616ZM33.7502 20.7116C33.2144 20.0366 32.3726 19.5866 31.4542 19.5116H30.6889C30.3063 19.5866 29.8471 19.6616 29.4644 19.8866C29.3114 19.8866 29.1583 19.9616 29.0053 19.9616C29.0053 19.0616 28.6226 18.0866 27.9338 17.2616L27.7042 17.4866L27.3216 17.7866V15.1616H24.1073C24.1838 15.0116 24.1838 14.8616 24.1838 14.7116C24.4134 14.3366 24.49 13.9616 24.5665 13.5116V12.7616C24.49 11.8616 24.0308 11.1116 23.342 10.5116C22.6532 9.98662 21.9644 9.31162 21.7349 8.63662C21.5053 9.31162 20.8165 9.98662 20.1277 10.5116C19.4389 11.0366 18.9798 11.8616 18.9032 12.7616V13.5116C18.9798 13.8866 19.0563 14.3366 19.2859 14.7116C19.2859 14.8616 19.3624 15.0116 19.3624 15.1616H16.3012V17.7866L15.9185 17.4866L15.6889 17.2616C15.0002 18.0866 14.6175 19.1366 14.6175 19.9616C14.4644 19.8866 14.3114 19.8866 14.1583 19.8866C13.7757 19.6616 13.393 19.5866 12.9338 19.5116H12.1685C11.2502 19.5866 10.4849 20.0366 9.87261 20.7116C9.3369 21.3866 8.64812 22.0616 7.95935 22.2866C8.64812 22.5116 9.3369 23.1866 9.87261 23.8616C10.4083 24.5366 11.2502 24.9866 12.1685 25.0616H12.9338C13.3165 24.9866 13.7757 24.9116 14.1583 24.6866C14.3114 24.6866 14.4644 24.6116 14.6175 24.6116C14.6175 25.5116 15.0002 26.4866 15.6889 27.3116L15.9185 27.0866L17.2961 26.0366C17.4491 26.3366 17.6787 26.6366 17.9083 26.9366L16.99 28.0616L16.7604 28.3616C17.6022 29.0366 18.6736 29.4116 19.5155 29.4116C19.4389 29.5616 19.4389 29.7116 19.4389 29.8616C19.2093 30.2366 19.1328 30.6116 19.0563 31.0616V31.8116C19.1328 32.7116 19.592 33.4616 20.2808 34.0616C20.9696 34.5866 21.6583 35.2616 21.8879 35.9366C22.1175 35.2616 22.8063 34.5866 23.4951 34.0616C24.1838 33.5366 24.643 32.7116 24.7196 31.8116V31.0616C24.643 30.6866 24.5665 30.2366 24.3369 29.8616C24.3369 29.7116 24.2604 29.5616 24.2604 29.4116C25.1787 29.4116 26.1736 29.0366 27.0155 28.3616L26.7859 28.1366L25.791 26.8616C25.944 26.6366 26.1736 26.4116 26.3267 26.1116L27.7042 27.1616L27.9338 27.3866C28.6226 26.5616 29.0053 25.5116 29.0053 24.6866C29.1583 24.7616 29.3114 24.7616 29.4644 24.7616C29.8471 24.9866 30.2298 25.0616 30.6889 25.1366H31.4542C32.3726 25.0616 33.1379 24.6116 33.7502 23.9366C34.2859 23.2616 34.9747 22.5866 35.6634 22.3616C34.9747 22.0616 34.2859 21.3866 33.7502 20.7116ZM16.3777 26.1866C16.0716 25.7366 15.842 25.2866 15.7655 24.8366C15.6889 24.5366 15.6124 24.2366 15.5359 24.0116L15.4593 24.0866C15.2298 24.2366 15.0002 24.3866 14.694 24.4616L14.2349 24.5366H13.8522C13.0869 24.4616 12.2451 24.0116 11.7093 23.2616C11.3267 22.7366 10.8675 22.5116 10.4083 22.3616C10.8675 22.2116 11.3267 21.9116 11.7093 21.4616C12.3216 20.7116 13.0869 20.2616 13.8522 20.1866H14.2349L14.6175 20.2616C14.8471 20.3366 15.1532 20.4116 15.3828 20.6366L15.4593 20.7116C15.4593 20.4116 15.5359 20.1866 15.6889 19.8866C15.842 19.4366 15.9951 18.9866 16.3012 18.6116V22.6616C16.3012 23.7866 16.6073 24.8366 17.0665 25.8116L16.3777 26.1866ZM19.3624 28.3616C18.9032 28.2116 18.444 28.0616 17.9849 27.7616L18.2144 27.3866C18.5971 27.7616 18.9798 28.1366 19.4389 28.4366L19.3624 28.3616ZM19.5155 14.7866V14.4116C19.592 13.6616 20.0512 12.8366 20.8165 12.3116C21.3522 11.9366 21.5818 11.4866 21.7349 11.0366C21.8879 11.4866 22.194 11.9366 22.6532 12.3116C23.4185 12.9116 23.8777 13.6616 23.9542 14.4116V14.7866L23.8777 15.1616H19.5155V14.7866ZM24.1838 30.1616C24.1073 30.9116 23.6481 31.7366 22.8828 32.2616C22.3471 32.6366 22.1175 33.0866 21.9644 33.5366C21.8114 33.0866 21.5053 32.6366 21.0461 32.2616C20.2808 31.6616 19.8216 30.9116 19.7451 30.1616V29.7866L19.8216 29.3366C19.8981 29.1116 19.9747 28.8866 20.1277 28.6616C20.6634 28.9616 21.2757 29.1866 21.9644 29.3366C22.6532 29.1866 23.2655 28.8866 23.8777 28.5866C24.0308 28.8116 24.1838 29.0366 24.1838 29.2616L24.2604 29.7116C24.1838 29.9366 24.1838 30.0866 24.1838 30.1616ZM24.49 28.3616C24.3369 28.4366 24.2604 28.4366 24.1073 28.5116C24.643 28.1366 25.1022 27.7616 25.4849 27.3116L25.791 27.7616C25.4083 27.9866 24.9491 28.2116 24.49 28.3616ZM31.99 23.1866C31.3777 23.9366 30.6124 24.3866 29.8471 24.4616H29.4644L29.0818 24.3866C28.8522 24.3116 28.5461 24.2366 28.3165 24.0116L28.24 23.9366C28.24 24.1616 28.1634 24.4616 28.0104 24.7616C27.8573 25.2116 27.7042 25.6616 27.3981 26.1116L26.7093 25.6616C27.1685 24.6866 27.4747 23.6366 27.4747 22.5116V18.4616C27.7808 18.9116 27.9338 19.2866 28.0869 19.7366C28.1634 20.0366 28.24 20.3366 28.3165 20.5616L28.393 20.4866C28.6226 20.3366 28.8522 20.1866 29.1583 20.1116L29.6175 20.0366H30.0002C30.7655 20.1116 31.6073 20.5616 32.143 21.3116C32.5257 21.8366 32.9849 22.0616 33.444 22.2116C32.9083 22.4366 32.4491 22.7366 31.99 23.1866Z" fill="#214099"/>
</g>
<defs>
<clipPath id="clip0_1_1107">
<rect width="150" height="60" fill="white" transform="translate(0 0.83667)"/>
</clipPath>
</defs>
</svg>
