<svg width="150" height="56" viewBox="0 0 150 56" fill="none" xmlns="http://www.w3.org/2000/svg">
<path d="M98.5476 29.9028H102.707C105.864 29.9028 107.466 31.0833 107.466 33.3036C107.479 33.9628 107.267 34.6066 106.865 35.1294C106.463 35.6521 105.896 36.0225 105.255 36.1797C106.014 36.3151 106.698 36.721 107.181 37.3222C107.663 37.9235 107.911 38.6792 107.879 39.4494C107.879 42.0163 106.005 43.3654 102.201 43.3654H98.5476V29.9028ZM102.539 35.2242C103.813 35.2242 104.553 34.6433 104.553 33.6502C104.553 32.6572 103.869 32.1888 102.464 32.1888H101.48V35.2242H102.539ZM102.81 40.9296C104.103 40.9296 104.881 40.2644 104.881 39.1683C104.881 38.0722 104.159 37.5194 102.81 37.5194H101.48V40.9764L102.81 40.9296Z" fill="#6A6A6D"/>
<path d="M115.074 29.4922H115.28L121.988 43.367H118.625L117.772 41.409H112.31L111.486 43.367H108.207L115.074 29.4922ZM116.779 39.0856L115.036 34.8697L113.247 39.0856H116.779Z" fill="#6A6A6D"/>
<path d="M123.384 29.4731H123.665L132.096 37.324V29.9041H135.066V43.8819H134.776L126.344 36.0311V43.3667H123.384V29.4731Z" fill="#6A6A6D"/>
<path d="M138.158 29.9028H141.334V35.7582L145.784 29.9028H149.607L144.529 36.3109L150 43.3654H146.15L141.362 37.1634V43.3654H138.186L138.158 29.9028Z" fill="#6A6A6D"/>
<path d="M71.6878 18.6992C82.0962 18.6992 89.7784 26.194 89.7784 36.9397C89.7784 47.6854 82.0962 55.1803 71.6878 55.1803C61.2794 55.1803 53.5222 47.6854 53.5222 36.9397C53.5222 26.194 61.3543 18.6992 71.6878 18.6992ZM71.6878 48.182C76.8592 48.182 80.7284 43.7788 80.7284 37.0147C80.7284 30.1007 76.8592 25.7725 71.6878 25.7725C66.5164 25.7725 62.5628 30.0351 62.5628 37.0147C62.5628 43.8537 66.4414 48.182 71.6878 48.182Z" fill="#6A6A6D"/>
<path d="M46.6365 18.6996L92.1207 0.046875H46.6365V18.6996Z" fill="#FF6600"/>
<path d="M46.6273 18.6992H37.6616V53.6626H46.6273V18.6992Z" fill="#6A6A6D"/>
<path d="M23.9366 18.6523L16.8915 35.1878L9.84632 18.6523H0L16.2076 55.8641H16.9664L33.2208 18.6523H23.9366Z" fill="#6A6A6D"/>
</svg>
